<svg xmlns="http://www.w3.org/2000/svg" xmlns:xlink="http://www.w3.org/1999/xlink" width="573" zoomAndPan="magnify" viewBox="0 0 429.75 193.499995" height="258" preserveAspectRatio="xMidYMid meet" version="1.2"><defs><clipPath id="8b71f5d789"><path d="M 0.429688 0 L 429.070312 0 L 429.070312 193 L 0.429688 193 Z M 0.429688 0 "/></clipPath><clipPath id="cbe4f9e546"><path d="M 0.429688 35 L 387 35 L 387 156 L 0.429688 156 Z M 0.429688 35 "/></clipPath><clipPath id="bce461e993"><path d="M 0.429688 10.335938 L 86.816406 10.335938 L 86.816406 94.730469 L 0.429688 94.730469 Z M 0.429688 10.335938 "/></clipPath><clipPath id="bdce0e9ad6"><path d="M 97 0.90625 L 386.3125 0.90625 L 386.3125 120.835938 L 97 120.835938 Z M 97 0.90625 "/></clipPath><clipPath id="61134139e5"><path d="M 0.617188 30 L 66 30 L 66 91 L 0.617188 91 Z M 0.617188 30 "/></clipPath><clipPath id="1c6114cc09"><rect x="0" width="290" y="0" height="121"/></clipPath><clipPath id="18939f94dd"><rect x="0" width="387" y="0" height="121"/></clipPath></defs><g id="0fa3a4157b"><g clip-rule="nonzero" clip-path="url(#8b71f5d789)"><path style=" stroke:none;fill-rule:nonzero;fill:#ffffff;fill-opacity:1;" d="M 0.429688 0 L 429.070312 0 L 429.070312 193 L 0.429688 193 Z M 0.429688 0 "/></g><g clip-rule="nonzero" clip-path="url(#cbe4f9e546)"><g transform="matrix(1,0,0,1,0,35)"><g clip-path="url(#18939f94dd)"><g clip-rule="nonzero" clip-path="url(#bce461e993)"><path style=" stroke:none;fill-rule:nonzero;fill:#0049ff;fill-opacity:1;" d="M 43.546875 10.808594 C 16.660156 10.808594 0.429688 30.058594 0.429688 52.457031 C 0.429688 74.855469 16.660156 94.261719 43.546875 94.261719 C 70.433594 94.261719 86.816406 74.835938 86.816406 52.457031 C 86.816406 30.078125 70.742188 10.808594 43.546875 10.808594 Z M 28.699219 63.867188 C 23.414062 64.261719 18.808594 56.839844 18.589844 47.675781 C 18.371094 38.515625 22.644531 30.496094 27.910156 30.101562 C 33.171875 29.75 37.757812 37.125 37.976562 46.289062 C 38.195312 55.453125 33.941406 63.511719 28.699219 63.867188 Z M 61.09375 61.597656 C 55.828125 61.992188 51.199219 54.570312 50.980469 45.410156 C 50.761719 36.246094 55.039062 28.230469 60.300781 27.832031 C 65.566406 27.480469 70.171875 34.859375 70.390625 44.019531 C 70.609375 53.183594 66.355469 61.246094 61.09375 61.597656 Z M 61.09375 61.597656 "/></g><g clip-rule="nonzero" clip-path="url(#bdce0e9ad6)"><g transform="matrix(1,0,0,1,97,-0.000000000000007105)"><g id="222890132d" clip-path="url(#1c6114cc09)"><g clip-rule="nonzero" clip-path="url(#61134139e5)"><g style="fill:#000000;fill-opacity:1;"><g transform="translate(0.853849, 90.555526)"><path style="stroke:none" d="M 65.140625 -60.453125 L 44.828125 0 L 20.3125 0 L 0 -60.453125 L 20.15625 -60.453125 L 32.609375 -18.875 L 45 -60.453125 Z M 65.140625 -60.453125 "/></g></g></g><g style="fill:#000000;fill-opacity:1;"><g transform="translate(63.169586, 90.555526)"><path style="stroke:none" d="M 23.21875 -45.328125 L 23.21875 -37.90625 L 42 -37.90625 L 42 -23.65625 L 23.21875 -23.65625 L 23.21875 -15.109375 L 44.5625 -15.109375 L 44.5625 0 L 4.265625 0 L 4.265625 -60.453125 L 44.5625 -60.453125 L 44.5625 -45.328125 Z M 23.21875 -45.328125 "/></g></g><g style="fill:#000000;fill-opacity:1;"><g transform="translate(107.814842, 90.555526)"><path style="stroke:none" d="M 62.328125 -60.453125 L 40.640625 -18.359375 L 40.640625 0 L 21.6875 0 L 21.6875 -18.359375 L 0 -60.453125 L 21.6875 -60.453125 L 31.328125 -39.015625 L 40.984375 -60.453125 Z M 62.328125 -60.453125 "/></g></g><g style="fill:#000000;fill-opacity:1;"><g transform="translate(167.313546, 90.555526)"><path style="stroke:none" d="M 34.65625 0 L 23.3125 -21.6875 L 23.21875 -21.6875 L 23.21875 0 L 4.265625 0 L 4.265625 -60.453125 L 32.4375 -60.453125 C 37.332031 -60.453125 41.515625 -59.582031 44.984375 -57.84375 C 48.460938 -56.101562 51.066406 -53.738281 52.796875 -50.75 C 54.535156 -47.757812 55.40625 -44.390625 55.40625 -40.640625 C 55.40625 -36.597656 54.28125 -33.007812 52.03125 -29.875 C 49.78125 -26.75 46.550781 -24.503906 42.34375 -23.140625 L 55.5 0 Z M 23.21875 -34.328125 L 30.734375 -34.328125 C 32.554688 -34.328125 33.921875 -34.738281 34.828125 -35.5625 C 35.742188 -36.382812 36.203125 -37.675781 36.203125 -39.4375 C 36.203125 -41.03125 35.726562 -42.28125 34.78125 -43.1875 C 33.84375 -44.101562 32.492188 -44.5625 30.734375 -44.5625 L 23.21875 -44.5625 Z M 23.21875 -34.328125 "/></g></g><g style="fill:#000000;fill-opacity:1;"><g transform="translate(221.690375, 90.555526)"><path style="stroke:none" d="M 43.03125 -9.140625 L 22.875 -9.140625 L 19.890625 0 L 0 0 L 22.109375 -60.453125 L 43.96875 -60.453125 L 66 0 L 46.015625 0 Z M 38.421875 -23.390625 L 32.953125 -40.21875 L 27.484375 -23.390625 Z M 38.421875 -23.390625 "/></g></g></g></g></g></g></g></g></g></svg>