<?xml version="1.0" encoding="UTF-8"?>
<svg id="Capa_2" data-name="Capa 2" xmlns="http://www.w3.org/2000/svg" viewBox="0 0 39.39 37.89">
  <defs>
    <style>
      .cls-1 {
        fill: #0049ff;
      }
    </style>
  </defs>
  <g id="Capa_1-2" data-name="Capa 1">
    <path class="cls-1" d="M19.66,0C7.4,0,0,8.74,0,18.91s7.4,18.98,19.66,18.98,19.73-8.82,19.73-18.98S32.06,0,19.66,0ZM12.89,24.09c-2.41.18-4.51-3.19-4.61-7.35-.1-4.16,1.85-7.8,4.25-7.98,2.4-.16,4.49,3.19,4.59,7.35.1,4.16-1.84,7.82-4.23,7.98ZM27.66,23.06c-2.4.18-4.51-3.19-4.61-7.35-.1-4.16,1.85-7.8,4.25-7.98,2.4-.16,4.5,3.19,4.6,7.35.1,4.16-1.84,7.82-4.24,7.98Z"/>
  </g>
</svg>